<svg xmlns="http://www.w3.org/2000/svg" viewBox="0 0 567.22 567.22">
  <path fill="#FFF" d="M560.433 142.569L447.613 29.751c-4.339-4.339-10.247-6.787-16.396-6.787-6.13 0-12.038 2.448-16.377 6.787l-20.198 20.218c-9.064 9.056-9.064 23.727 0 32.775l16.766 16.777-19.534 19.535c-32.2-17.615-69.132-27.668-108.349-27.668-39.18 0-76.053 10.017-108.22 27.604l-19.48-19.468 16.765-16.777c9.066-9.047 9.066-23.717 0-32.775l-20.198-20.218c-4.339-4.339-10.245-6.787-16.377-6.787-6.148 0-12.056 2.448-16.396 6.787L6.795 142.569C2.456 146.908 0 152.808 0 158.957c0 6.149 2.456 12.048 6.795 16.388l20.217 20.218c9.049 9.039 23.708 9.039 32.774-.008l18.407-18.409 16.304 16.314c-23.578 35.73-37.409 78.438-37.409 124.357 0 124.864 101.594 226.438 226.43 226.438 124.856 0 226.43-101.571 226.43-226.438 0-45.876-13.813-88.539-37.337-124.25l16.416-16.424 18.406 18.409c9.065 9.047 23.729 9.047 32.774.008l20.219-20.218c4.339-4.339 6.793-10.239 6.793-16.388.007-6.146-2.449-12.046-6.786-16.385zM283.519 489.357c-94.572 0-171.533-76.949-171.533-171.541 0-94.584 76.961-171.536 171.533-171.536 94.575 0 171.554 76.951 171.554 171.536 0 94.593-76.977 171.541-171.554 171.541z"/>
  <path fill="#FFF" d="M362.604 290.375h-51.608v-51.636c0-15.157-12.296-27.446-27.457-27.446-15.141 0-27.436 12.287-27.436 27.446v51.636h-51.645c-15.162 0-27.457 12.279-27.457 27.439 0 15.167 12.295 27.446 27.457 27.446h51.645v51.636c0 15.157 12.295 27.446 27.436 27.446 15.161 0 27.457-12.289 27.457-27.446V345.26h51.608c15.161 0 27.457-12.279 27.457-27.446 0-15.159-12.296-27.439-27.457-27.439z"/>
</svg>
