<svg xmlns="http://www.w3.org/2000/svg" width="512" height="512" viewBox="0 0 87.859 87.859"><path d="M43.93 0C19.705 0 0 19.705 0 43.93c0 24.224 19.705 43.93 43.93 43.93 24.224 0 43.93-19.706 43.93-43.93C87.86 19.705 68.153 0 43.93 0zm0 79.872c-19.82 0-35.943-16.123-35.943-35.942 0-19.813 16.123-35.943 35.943-35.943 19.82 0 35.943 16.13 35.943 35.943 0 19.82-16.124 35.942-35.943 35.942zm14.117-44.186l-5.584-5.592-8.385 8.387-8.385-8.386-5.592 5.592 8.386 8.387L30.1 52.46l5.585 5.592 8.39-8.39 8.388 8.39 5.592-5.592-8.39-8.392 8.382-8.382z" fill="#d8e3eb"/></svg>
