<svg xmlns="http://www.w3.org/2000/svg" width="512" height="512" viewBox="0 0 322.877 322.877"><path d="M135.892 41.438c7.732 0 15.432 3.183 20.973 9.42 10.278 11.576 9.233 29.297-2.344 39.57l-11.17 9.928H269.84c15.484 0 28.035 12.546 28.035 28.033 0 15.476-12.55 28.032-28.035 28.032h-65.576c2.483 4.188 3.934 9.05 3.934 14.27 0 11.893-7.416 22.038-17.88 26.11 2.79 4.358 4.427 9.52 4.427 15.08 0 13.7-9.824 25.088-22.81 27.532 2.37 4.117 3.75 8.877 3.75 13.963 0 15.478-12.557 28.033-28.037 28.033l-68.72.027c-29.786 0-53.93-26.975-53.93-60.242v-60.223c0-18.03 11.394-39.008 23.43-51.304l68.854-61.155c5.34-4.742 11.985-7.075 18.608-7.075m.002-25c-12.99 0-25.496 4.753-35.213 13.387L31.828 90.978c-.436.387-.857.79-1.265 1.205-8.083 8.258-15.5 18.96-20.884 30.14C3.346 135.462 0 148.83 0 160.972v60.224c0 22.252 7.873 43.303 22.168 59.27C37.162 297.215 57.32 306.44 78.93 306.44l68.73-.027c29.234 0 53.025-23.79 53.025-53.032 0-.257-.002-.516-.006-.772 11.744-9.812 19.063-24.55 19.063-40.725 0-1.87-.098-3.73-.295-5.58 1.518-1.672 2.932-3.444 4.234-5.315 4.146-5.94 6.99-12.573 8.428-19.563h37.73c29.244 0 53.035-23.79 53.035-53.032 0-29.242-23.79-53.033-53.035-53.033h-81.23c.102-.91.18-1.827.232-2.748.838-14.138-3.882-27.757-13.283-38.348-10.062-11.33-24.517-17.824-39.666-17.826z" fill="#ccc"/></svg>
