<svg xmlns="http://www.w3.org/2000/svg" viewBox="0 0 18.631 18.631">
  <path fill="#FFF" d="M8.717 10.782c.331.331.867.331 1.197 0 .331-.331.331-.865 0-1.196L4.525 4.197c-.331-.331-.867-.331-1.198 0-.331.331-.331.865 0 1.196l5.39 5.389zm.599-5.7c1.402 0 2.539-1.137 2.539-2.539C11.856 1.137 10.719 0 9.316 0 7.912 0 6.775 1.137 6.775 2.543c0 1.402 1.137 2.539 2.541 2.539zm0-3.387c.467 0 .846.379.846.847 0 .465-.379.844-.846.844-.469 0-.847-.379-.847-.844 0-.468.379-.847.847-.847zm4.704 3.606c-.011-.012-.023-.027-.036-.041-.012-.012-.014-.015-.029-.03.023.023.043.048.065.071zm1.076-1.314c.009.009.017.019.026.028.042.035.045.041-.026-.028zm.026.028c-.092-.077-.391-.307-.674-.307-.467 0-.846.375-.846.844 0 .232.238.544.382.708.117.119.121.131.066.074 1.196 1.241 2.039 2.972 2.039 4.827 0 3.742-3.034 6.778-6.774 6.778-3.742 0-6.776-3.036-6.776-6.778 0-.717.214-1.382.322-2.054.002-.014-.005-.021-.004-.034.055-.11.093-.234.093-.369 0-.469-.379-.848-.846-.848-.378 0-.688.252-.796.593-.003.011-.015.014-.02.025-.398.795-.441 1.747-.441 2.687 0 4.679 3.792 8.469 8.469 8.469 4.676 0 8.468-3.79 8.468-8.469 0-2.426-1.078-4.551-2.662-6.146z"/>
</svg>
