<svg xmlns="http://www.w3.org/2000/svg" viewBox="0 0 512 512"><path d="M278.624 422.624c-12.496-12.496-32.752-12.496-45.248 0L160 496h192l-73.376-73.376z" fill="#97DBFF"/><path d="M278.624 422.624l11.312-11.312c-9.328-9.344-21.712-14.08-33.936-14.064-12.224-.016-24.608 4.72-33.936 14.064l-73.376 73.376c-4.576 4.576-5.952 11.456-3.472 17.44 2.48 5.968 8.32 9.872 14.784 9.872h192c6.464 0 12.304-3.904 14.784-9.872 2.48-5.984 1.104-12.864-3.472-17.44l-73.376-73.376-11.312 11.312-11.312 11.312 73.376 73.376L352 496v-16H160v16l11.312 11.312 73.376-73.376c3.168-3.152 7.168-4.672 11.312-4.688 4.144.016 8.144 1.536 11.312 4.688l11.312-11.312z" fill="#4E5F80"/><path d="M146.592 176c21.92 38.08 62.24 64 109.408 64s87.488-25.92 109.408-64H146.592z" fill="#97DBFF"/><g fill="#4E5F80"><path d="M80 32h32v80c.016 66.064 44.528 121.584 105.168 138.544.576.16 1.184.288 1.76.448 4.896 1.296 9.872 2.336 14.96 3.12 1.424.224 2.832.464 4.256.656C244 255.504 249.936 256 256 256s12-.496 17.856-1.216c1.44-.176 2.832-.432 4.256-.656 5.088-.784 10.064-1.824 14.96-3.12.592-.16 1.184-.288 1.76-.448C355.472 233.584 400 178.064 400 112V32h32c8.832 0 16-7.168 16-16s-7.168-16-16-16H80c-8.832 0-16 7.168-16 16s7.168 16 16 16zm206.32 187.696c-.72.208-1.456.368-2.176.56-3.488.928-7.056 1.648-10.672 2.224-1.28.208-2.544.432-3.824.592-4.48.544-9.008.928-13.648.928-4.64 0-9.168-.384-13.648-.928-1.28-.16-2.544-.384-3.824-.592-3.616-.576-7.184-1.296-10.672-2.224-.72-.192-1.456-.352-2.176-.56C207.792 214.528 191.904 208 178.992 192h154.016c-12.912 16-28.8 22.528-46.688 27.696zM144 32h224v80c-.032 17.216-4.048 33.44-10.992 48H154.976c-6.928-14.56-10.944-30.784-10.976-48V32zM432 480h-32v-80c-.016-79.536-64.464-143.984-144-144-79.536.016-143.984 64.464-144 144v80H80c-8.832 0-16 7.168-16 16s7.168 16 16 16h352c8.832 0 16-7.168 16-16s-7.168-16-16-16zm-64 0H144v-80c.112-61.856 50.144-111.888 112-112 61.856.112 111.888 50.144 112 112v80z"/><path d="M256 288c-8.832 0-16 7.168-16 16v19.2c0 8.832 7.168 16 16 16s16-7.168 16-16V304c0-8.832-7.168-16-16-16zM256 352c-8.832 0-16 7.168-16 16v16c0 8.832 7.168 16 16 16s16-7.168 16-16v-16c0-8.832-7.168-16-16-16z"/></g></svg>
