<svg xmlns="http://www.w3.org/2000/svg" viewBox="0 0 512 512"><g fill="#2D527C"><path d="M380.283 512H131.72c-8.124 0-14.71-6.586-14.71-14.708v-117.27c0-76.638 62.352-138.99 138.99-138.99 8.123 0 14.71 6.587 14.71 14.71 0 8.12-6.587 14.707-14.71 14.707-60.42 0-109.573 49.154-109.573 109.573v102.56h219.148v-102.56c0-23.684-7.43-46.223-21.487-65.18-4.837-6.527-3.47-15.738 3.055-20.576 6.524-4.84 15.738-3.47 20.575 3.055 17.842 24.065 27.273 52.663 27.273 82.7v117.27c0 8.123-6.585 14.708-14.707 14.708z"/><path d="M404.73 512H107.27c-8.122 0-14.707-6.586-14.707-14.708s6.585-14.708 14.708-14.708h297.46c8.12 0 14.707 6.586 14.707 14.708S412.85 512 404.73 512z"/></g><path d="M256 256.26c68.64 0 124.283-55.643 124.283-124.282V14.708H131.72v117.27c0 68.638 55.642 124.282 124.28 124.282z" fill="#CEE8FA"/><g fill="#2D527C"><path d="M256 270.968c-76.638 0-138.99-62.35-138.99-138.99V14.708C117.01 6.586 123.596 0 131.72 0h248.563c8.122 0 14.708 6.586 14.708 14.708v117.27c0 76.64-62.35 138.99-138.99 138.99zM146.427 29.416v102.56c0 60.42 49.154 109.575 109.574 109.575 60.42 0 109.574-49.154 109.574-109.573V29.417H146.426z"/><path d="M404.73 29.416H107.27c-8.122 0-14.707-6.586-14.707-14.708S99.148 0 107.27 0h297.46c8.12 0 14.707 6.586 14.707 14.708s-6.586 14.708-14.708 14.708zM256 361.82c-8.122 0-14.707-6.586-14.707-14.708V255.74c0-8.122 6.585-14.708 14.708-14.708 8.123 0 14.71 6.586 14.71 14.708v91.372c0 8.122-6.588 14.708-14.71 14.708zM207.464 89.065H134.66c-8.123 0-14.708-6.586-14.708-14.708s6.585-14.708 14.708-14.708h72.804c8.123 0 14.708 6.585 14.708 14.707s-6.584 14.708-14.708 14.708zM380.65 452.352h-72.803c-8.122 0-14.708-6.586-14.708-14.708s6.585-14.708 14.707-14.708h72.804c8.123 0 14.71 6.586 14.71 14.708s-6.588 14.708-14.71 14.708z"/></g></svg>
